# Blender v2.79 (sub 0) OBJ File: 'bowling_pin.blend'
# www.blender.org
mtllib bowling_pin.mtl
o BowlingPin_Sphere
v 0.000000 4.920233 -0.382683
v 0.000000 4.703461 -0.707107
v 0.000000 4.379037 -0.923879
v 0.000000 3.996354 -1.000000
v 0.000000 3.613670 -0.923879
v 0.000000 3.193121 -0.707107
v 0.146447 4.920233 -0.353553
v 0.270598 4.703461 -0.653281
v 0.353553 4.379037 -0.853553
v 0.382683 3.996354 -0.923879
v 0.353553 3.613670 -0.853553
v 0.270598 3.193121 -0.653281
v -0.000000 4.996354 0.000000
v 0.270598 4.920233 -0.270598
v 0.500000 4.703461 -0.500000
v 0.653281 4.379037 -0.653281
v 0.707107 3.996354 -0.707107
v 0.653281 3.613670 -0.653281
v 0.500000 3.193121 -0.500000
v -0.270598 -2.710753 -0.653281
v 0.353553 4.920233 -0.146446
v 0.653281 4.703461 -0.270598
v 0.853553 4.379037 -0.353553
v 0.923879 3.996354 -0.382683
v 0.853553 3.613670 -0.353553
v 0.653281 3.193121 -0.270598
v -0.499999 -2.710753 -0.500000
v 0.382683 4.920233 0.000000
v 0.707107 4.703461 0.000000
v 0.923879 4.379037 0.000000
v 1.000000 3.996354 0.000000
v 0.923879 3.613670 0.000000
v 0.707107 3.193121 0.000000
v -0.653281 -2.710753 -0.270598
v 0.353553 4.920233 0.146447
v 0.653281 4.703461 0.270598
v 0.853553 4.379037 0.353554
v 0.923879 3.996354 0.382684
v 0.853553 3.613670 0.353554
v 0.653281 3.193121 0.270598
v -0.707106 -2.710753 -0.000000
v 0.270598 4.920233 0.270598
v 0.500000 4.703461 0.500000
v 0.653281 4.379037 0.653282
v 0.707106 3.996354 0.707107
v 0.653281 3.613670 0.653282
v 0.500000 3.193121 0.500000
v -0.653281 -2.710753 0.270598
v 0.146446 4.920233 0.353553
v 0.270598 4.703461 0.653281
v 0.353553 4.379037 0.853553
v 0.382683 3.996354 0.923879
v 0.353553 3.613670 0.853553
v 0.270598 3.193121 0.653281
v -0.500000 -2.710753 0.500000
v -0.000000 4.920233 0.382683
v -0.000000 4.703461 0.707107
v -0.000000 4.379037 0.923879
v -0.000000 3.996354 1.000000
v -0.000000 3.613670 0.923879
v -0.000000 3.193121 0.707107
v -0.270598 -2.710753 0.653281
v -0.146447 4.920233 0.353553
v -0.270598 4.703461 0.653281
v -0.353554 4.379037 0.853553
v -0.382684 3.996354 0.923879
v -0.353554 3.613670 0.853553
v -0.270598 3.193121 0.653281
v -0.000000 -2.710753 0.707107
v -0.270598 4.920233 0.270598
v -0.500000 4.703461 0.500000
v -0.653282 4.379037 0.653281
v -0.707107 3.996354 0.707106
v -0.653282 3.613670 0.653281
v -0.500000 3.193121 0.500000
v 0.270598 -2.710753 0.653281
v 0.500000 -2.710753 0.500000
v -0.353553 4.920233 0.146447
v -0.653281 4.703461 0.270598
v -0.853553 4.379037 0.353553
v -0.923879 3.996354 0.382683
v -0.853553 3.613670 0.353553
v -0.653281 3.193121 0.270598
v 0.653281 -2.710753 0.270598
v -0.382683 4.920233 -0.000000
v -0.707106 4.703461 -0.000000
v -0.923879 4.379037 -0.000000
v -1.000000 3.996354 -0.000000
v -0.923879 3.613670 -0.000000
v -0.707106 3.193121 -0.000000
v 0.707107 -2.710753 0.000000
v -0.353553 4.920233 -0.146447
v -0.653281 4.703461 -0.270598
v -0.853553 4.379037 -0.353554
v -0.923879 3.996354 -0.382684
v -0.853553 3.613670 -0.353554
v -0.653281 3.193121 -0.270598
v 0.653281 -2.710753 -0.270598
v -0.270598 4.920233 -0.270598
v -0.499999 4.703461 -0.500000
v -0.653281 4.379037 -0.653281
v -0.707106 3.996354 -0.707107
v -0.653281 3.613670 -0.653281
v -0.499999 3.193121 -0.500000
v 0.500000 -2.710753 -0.500000
v -0.146446 4.920233 -0.353553
v -0.270598 4.703461 -0.653281
v -0.353553 4.379037 -0.853553
v -0.382683 3.996354 -0.923879
v -0.353553 3.613670 -0.853553
v -0.270598 3.193121 -0.653281
v 0.270598 -2.710753 -0.653281
v 0.000000 -2.710753 -0.707107
v -1.326835 -0.015437 -0.000000
v 1.225836 -0.015436 -0.507757
v 0.507757 -0.015437 1.225836
v -1.225836 -0.015437 0.507757
v 0.938214 -0.015437 -0.938214
v -1.225835 -0.015436 -0.507758
v -0.938214 -0.015437 0.938214
v 1.326835 -0.015436 0.000000
v 0.507758 -0.015437 -1.225836
v 0.000000 -0.015436 -1.326835
v -0.507757 -0.015437 -1.225836
v -0.938213 -0.015436 -0.938214
v 0.938214 -0.015437 0.938214
v 1.225836 -0.015436 0.507758
v -0.507758 -0.015437 1.225836
v -0.000000 -0.015436 1.326835
v 0.721182 1.827240 -0.298723
v -0.721182 1.827240 -0.298724
v 0.780602 1.827240 0.000000
v -0.000000 1.827240 -0.780602
v -0.551968 1.827240 -0.551969
v 0.721182 1.827240 0.298723
v -0.000000 1.827240 0.780602
v -0.780601 1.827240 -0.000000
v 0.298723 1.827240 0.721182
v -0.721182 1.827240 0.298723
v 0.551969 1.827240 -0.551969
v -0.551969 1.827240 0.551968
v 0.298723 1.827240 -0.721182
v -0.298723 1.827240 -0.721182
v 0.551968 1.827240 0.551969
v -0.298724 1.827240 0.721182
v 0.555690 2.961135 -0.230174
v -0.555690 2.961135 -0.230174
v 0.601474 2.961135 0.000000
v -0.000000 2.961135 -0.601474
v -0.425306 2.961135 -0.425307
v 0.555690 2.961135 0.230174
v -0.000000 2.961135 0.601475
v -0.601474 2.961136 -0.000000
v 0.230174 2.961136 0.555690
v -0.555690 2.961136 0.230174
v 0.425307 2.961136 -0.425307
v -0.425307 2.961136 0.425306
v 0.230174 2.961136 -0.555690
v -0.230174 2.961136 -0.555690
v 0.425306 2.961136 0.425307
v -0.230175 2.961136 0.555690
v -0.568178 2.668976 -0.000000
v 0.217432 2.668976 0.524928
v -0.524928 2.668976 0.217432
v 0.401762 2.668976 -0.401762
v -0.401762 2.668976 0.401762
v 0.217432 2.668976 -0.524928
v -0.217432 2.668976 -0.524928
v 0.401762 2.668976 0.401762
v -0.217432 2.668976 0.524928
v 0.524928 2.668976 -0.217432
v -0.524928 2.668976 -0.217432
v 0.568178 2.668976 0.000000
v -0.000000 2.668976 -0.568178
v -0.401762 2.668976 -0.401762
v 0.524928 2.668976 0.217432
v -0.000000 2.668976 0.568178
v -0.586054 2.403817 -0.000000
v 0.224273 2.403817 0.541443
v -0.541443 2.403817 0.224273
v 0.414403 2.403817 -0.414403
v -0.414403 2.403817 0.414402
v 0.224273 2.403817 -0.541443
v -0.224273 2.403817 -0.541443
v 0.414402 2.403817 0.414403
v -0.224273 2.403817 0.541443
v 0.541443 2.403817 -0.224273
v -0.541443 2.403817 -0.224273
v 0.586054 2.403817 0.000000
v -0.000000 2.403817 -0.586054
v -0.414402 2.403817 -0.414403
v 0.541443 2.403817 0.224273
v -0.000000 2.403817 0.586054
v -0.650748 2.105374 -0.000000
v 0.249030 2.105374 0.601213
v -0.601213 2.105374 0.249030
v 0.460149 2.105374 -0.460148
v -0.460149 2.105374 0.460148
v 0.249031 2.105374 -0.601213
v -0.249030 2.105374 -0.601213
v 0.460148 2.105374 0.460149
v -0.249031 2.105374 0.601213
v 0.601213 2.105374 -0.249030
v -0.601213 2.105374 -0.249031
v 0.650748 2.105374 0.000000
v -0.000000 2.105374 -0.650748
v -0.460148 2.105374 -0.460149
v 0.601213 2.105374 0.249031
v -0.000000 2.105374 0.650748
v -0.233620 -2.810752 -0.564009
v -0.431674 -2.810752 -0.431674
v -0.564009 -2.810752 -0.233621
v -0.610479 -2.810752 -0.000000
v -0.564010 -2.810752 0.233620
v -0.431674 -2.810752 0.431674
v -0.233621 -2.810752 0.564010
v -0.000000 -2.810752 0.610480
v 0.233620 -2.810752 0.564010
v 0.431674 -2.810752 0.431674
v 0.564009 -2.810752 0.233621
v 0.610480 -2.810752 0.000000
v 0.564010 -2.810752 -0.233620
v 0.431674 -2.810752 -0.431674
v 0.233620 -2.810752 -0.564010
v 0.000000 -2.810752 -0.610480
v -1.180432 0.944781 -0.000000
v 0.451732 0.944781 1.090577
v -1.090577 0.944781 0.451731
v 0.834692 0.944781 -0.834692
v -0.834692 0.944781 0.834691
v 0.451732 0.944781 -1.090577
v -0.451731 0.944781 -1.090577
v 0.834691 0.944781 0.834692
v -0.451732 0.944781 1.090577
v 1.090577 0.944782 -0.451732
v -1.090577 0.944782 -0.451732
v 1.180432 0.944782 0.000000
v 0.000000 0.944782 -1.180432
v -0.834691 0.944782 -0.834692
v 1.090577 0.944782 0.451732
v -0.000000 0.944782 1.180432
v -1.174419 -0.957393 -0.000000
v 0.449430 -0.957393 1.085022
v -1.085022 -0.957393 0.449430
v 0.830440 -0.957393 -0.830440
v -0.830440 -0.957393 0.830439
v 0.449431 -0.957393 -1.085022
v -0.449430 -0.957393 -1.085021
v 0.830439 -0.957393 0.830440
v -0.449431 -0.957393 1.085022
v 1.085022 -0.957392 -0.449430
v -1.085021 -0.957392 -0.449431
v 1.174419 -0.957392 0.000000
v 0.000000 -0.957392 -1.174419
v -0.830439 -0.957392 -0.830440
v 1.085021 -0.957392 0.449431
v -0.000000 -0.957392 1.174419
vn 0.1741 -0.4512 -0.8753
vn 0.1915 0.1915 -0.9626
vn 0.1098 0.8264 -0.5522
vn 0.1915 -0.1915 -0.9626
vn 0.1632 0.5481 -0.8203
vn 0.0388 0.9800 -0.1949
vn 0.3128 0.8264 -0.4681
vn 0.5453 -0.1915 -0.8161
vn 0.4647 0.5481 -0.6954
vn 0.1104 0.9800 -0.1653
vn 0.4958 -0.4512 -0.7420
vn 0.5453 0.1915 -0.8161
vn 0.8161 -0.1915 -0.5453
vn 0.6954 0.5481 -0.4647
vn 0.1653 0.9800 -0.1104
vn 0.7420 -0.4512 -0.4958
vn 0.8161 0.1915 -0.5453
vn 0.4681 0.8264 -0.3128
vn 0.1949 0.9800 -0.0388
vn 0.8753 -0.4512 -0.1741
vn 0.9626 0.1915 -0.1915
vn 0.5522 0.8264 -0.1098
vn 0.9626 -0.1915 -0.1915
vn 0.8203 0.5481 -0.1632
vn 0.8753 -0.4512 0.1741
vn 0.9626 0.1915 0.1915
vn 0.5522 0.8264 0.1098
vn 0.9626 -0.1915 0.1915
vn 0.8203 0.5481 0.1632
vn 0.1949 0.9800 0.0388
vn 0.8161 -0.1915 0.5453
vn 0.6954 0.5481 0.4647
vn 0.1653 0.9800 0.1104
vn 0.7420 -0.4512 0.4958
vn 0.8161 0.1915 0.5453
vn 0.4681 0.8264 0.3128
vn 0.5453 -0.1915 0.8161
vn 0.4647 0.5481 0.6954
vn 0.1104 0.9800 0.1653
vn 0.4958 -0.4512 0.7420
vn 0.5453 0.1915 0.8161
vn 0.3128 0.8264 0.4681
vn 0.1741 -0.4512 0.8753
vn 0.1915 0.1915 0.9626
vn 0.1098 0.8264 0.5522
vn 0.1915 -0.1915 0.9626
vn 0.1632 0.5481 0.8203
vn 0.0388 0.9800 0.1949
vn -0.1915 0.1915 0.9626
vn -0.1098 0.8264 0.5522
vn 0.8044 -0.2529 -0.5375
vn -0.1915 -0.1915 0.9626
vn -0.1632 0.5481 0.8203
vn -0.0388 0.9800 0.1949
vn -0.9489 -0.2529 -0.1887
vn -0.1741 -0.4512 0.8753
vn -0.9489 -0.2529 0.1887
vn -0.5453 -0.1915 0.8161
vn -0.4647 0.5481 0.6954
vn -0.1104 0.9800 0.1653
vn 0.9489 -0.2529 -0.1887
vn -0.4958 -0.4512 0.7420
vn -0.5453 0.1915 0.8161
vn -0.3128 0.8264 0.4681
vn -0.6954 0.5481 0.4647
vn -0.1653 0.9800 0.1104
vn 0.1887 -0.2529 0.9489
vn -0.7420 -0.4512 0.4958
vn -0.8161 0.1915 0.5453
vn -0.4681 0.8264 0.3128
vn 0.5375 -0.2529 0.8044
vn -0.8161 -0.1915 0.5453
vn -0.8044 -0.2529 0.5375
vn -0.8753 -0.4512 0.1741
vn -0.9626 0.1915 0.1915
vn -0.5522 0.8264 0.1098
vn 0.5375 -0.2529 -0.8044
vn -0.9626 -0.1915 0.1915
vn -0.8203 0.5481 0.1632
vn -0.1949 0.9800 0.0388
vn -0.5522 0.8264 -0.1098
vn -0.1887 -0.2529 -0.9489
vn -0.9626 -0.1915 -0.1915
vn -0.8203 0.5481 -0.1632
vn -0.1949 0.9800 -0.0388
vn -0.8044 -0.2529 -0.5375
vn -0.8753 -0.4512 -0.1741
vn -0.9626 0.1915 -0.1915
vn -0.5375 -0.2529 0.8044
vn -0.8161 -0.1915 -0.5453
vn -0.6954 0.5481 -0.4647
vn -0.1653 0.9800 -0.1104
vn 0.9489 -0.2529 0.1887
vn -0.7420 -0.4512 -0.4958
vn -0.8161 0.1915 -0.5453
vn -0.4681 0.8264 -0.3128
vn -0.1104 0.9800 -0.1653
vn 0.1887 -0.2529 -0.9489
vn -0.4958 -0.4512 -0.7420
vn -0.5453 0.1915 -0.8161
vn -0.3128 0.8264 -0.4681
vn -0.5375 -0.2529 -0.8044
vn -0.5453 -0.1915 -0.8161
vn -0.4647 0.5481 -0.6954
vn -0.1741 -0.4512 -0.8753
vn -0.1915 0.1915 -0.9626
vn -0.1098 0.8264 -0.5522
vn 0.8044 -0.2529 0.5375
vn -0.1915 -0.1915 -0.9626
vn -0.1632 0.5481 -0.8203
vn -0.0388 0.9800 -0.1949
vn -0.1887 -0.2529 0.9489
vn -0.1929 0.1479 0.9700
vn 0.8223 0.1479 0.5495
vn -0.5495 0.1479 -0.8223
vn 0.1929 0.1479 -0.9700
vn 0.9700 0.1479 0.1929
vn -0.5495 0.1479 0.8223
vn -0.8223 0.1479 -0.5495
vn -0.1929 0.1479 -0.9700
vn 0.5495 0.1479 -0.8223
vn -0.8223 0.1479 0.5495
vn 0.5495 0.1479 0.8223
vn 0.1929 0.1479 0.9700
vn 0.9700 0.1479 -0.1929
vn -0.9700 0.1479 0.1929
vn -0.9700 0.1479 -0.1929
vn 0.8223 0.1479 -0.5495
vn 0.7560 0.4163 -0.5051
vn -0.8917 0.4163 -0.1774
vn -0.8917 0.4163 0.1774
vn 0.8917 0.4163 -0.1774
vn 0.1774 0.4163 0.8917
vn 0.5051 0.4163 0.7560
vn -0.7560 0.4163 0.5051
vn 0.5051 0.4163 -0.7560
vn -0.1774 0.4163 -0.8917
vn -0.7560 0.4163 -0.5051
vn -0.5051 0.4163 0.7560
vn 0.8917 0.4163 0.1774
vn 0.1774 0.4163 -0.8917
vn -0.5051 0.4163 -0.7560
vn 0.7560 0.4163 0.5051
vn -0.1774 0.4163 0.8917
vn -0.1781 -0.4078 0.8955
vn 0.7592 -0.4078 0.5073
vn -0.5073 -0.4078 -0.7592
vn 0.1781 -0.4078 -0.8955
vn 0.8955 -0.4078 0.1781
vn -0.5073 -0.4078 0.7592
vn -0.7592 -0.4078 -0.5073
vn -0.1781 -0.4078 -0.8955
vn 0.5073 -0.4078 -0.7592
vn -0.7592 -0.4078 0.5073
vn 0.5073 -0.4078 0.7592
vn 0.1781 -0.4078 0.8955
vn 0.8955 -0.4078 -0.1781
vn -0.8955 -0.4078 0.1781
vn -0.8955 -0.4078 -0.1781
vn 0.7592 -0.4078 -0.5073
vn -0.1947 0.0660 0.9786
vn 0.8297 0.0660 0.5544
vn -0.5544 0.0660 -0.8297
vn 0.1947 0.0660 -0.9786
vn 0.9786 0.0660 0.1947
vn -0.5544 0.0660 0.8297
vn -0.8297 0.0660 -0.5544
vn -0.1947 0.0660 -0.9786
vn 0.5544 0.0660 -0.8297
vn -0.8297 0.0660 0.5544
vn 0.5544 0.0660 0.8297
vn 0.1947 0.0660 0.9786
vn 0.9786 0.0660 -0.1947
vn -0.9786 0.0660 0.1947
vn -0.9786 0.0660 -0.1947
vn 0.8297 0.0660 -0.5544
vn -0.7119 -0.6879 0.1416
vn 0.7119 -0.6879 0.1416
vn 0.1416 -0.6879 0.7119
vn 0.1416 -0.6879 -0.7119
vn -0.1416 -0.6879 -0.7119
vn -0.6035 -0.6879 0.4032
vn 0.7119 -0.6879 -0.1416
vn 0.4032 -0.6879 0.6035
vn -0.4032 -0.6879 -0.6035
vn -0.4032 -0.6879 0.6035
vn 0.6035 -0.6879 -0.4032
vn -0.6035 -0.6879 -0.4032
vn 0.6035 -0.6879 0.4032
vn -0.7119 -0.6879 -0.1416
vn -0.1416 -0.6879 0.7119
vn 0.4032 -0.6879 -0.6035
vn 0.0000 -1.0000 -0.0000
vn 0.7598 0.4061 -0.5077
vn -0.8963 0.4061 -0.1783
vn -0.8963 0.4061 0.1783
vn 0.8963 0.4061 -0.1783
vn 0.1783 0.4061 0.8963
vn 0.5077 0.4061 0.7598
vn -0.7598 0.4061 0.5077
vn 0.5077 0.4061 -0.7598
vn -0.1783 0.4061 -0.8963
vn -0.7598 0.4061 -0.5077
vn -0.5077 0.4061 0.7598
vn 0.8963 0.4061 0.1783
vn 0.1783 0.4061 -0.8963
vn -0.5077 0.4061 -0.7598
vn 0.7598 0.4061 0.5077
vn -0.1783 0.4061 0.8963
vn -0.1927 -0.1567 0.9687
vn 0.8212 -0.1567 0.5487
vn -0.5487 -0.1567 -0.8212
vn 0.1927 -0.1567 -0.9687
vn 0.9687 -0.1567 0.1927
vn -0.5487 -0.1567 0.8212
vn -0.8212 -0.1567 -0.5487
vn -0.1927 -0.1567 -0.9687
vn 0.5487 -0.1567 -0.8212
vn -0.8212 -0.1567 0.5487
vn 0.5487 -0.1567 0.8212
vn 0.1927 -0.1567 0.9687
vn 0.9687 -0.1567 -0.1927
vn -0.9687 -0.1567 0.1927
vn -0.9687 -0.1567 -0.1927
vn 0.8212 -0.1567 -0.5487
vn -0.1939 -0.1111 0.9747
vn 0.8263 -0.1111 0.5521
vn -0.5521 -0.1111 -0.8263
vn 0.1939 -0.1111 -0.9747
vn 0.9747 -0.1111 0.1939
vn -0.5521 -0.1111 0.8263
vn -0.8263 -0.1111 -0.5521
vn -0.1939 -0.1111 -0.9747
vn 0.5521 -0.1111 -0.8263
vn -0.8263 -0.1111 0.5521
vn 0.5521 -0.1111 0.8263
vn 0.1939 -0.1111 0.9747
vn 0.9747 -0.1111 -0.1939
vn -0.9747 -0.1111 0.1939
vn -0.9747 -0.1111 -0.1939
vn 0.8263 -0.1111 -0.5521
vn -0.1908 0.2080 0.9593
vn 0.8133 0.2080 0.5434
vn -0.5434 0.2080 -0.8133
vn 0.1908 0.2080 -0.9593
vn 0.9593 0.2080 0.1908
vn -0.5434 0.2080 0.8133
vn -0.8133 0.2080 -0.5434
vn -0.1908 0.2080 -0.9593
vn 0.5434 0.2080 -0.8133
vn -0.8133 0.2080 0.5434
vn 0.5434 0.2080 0.8133
vn 0.1908 0.2080 0.9593
vn 0.9593 0.2080 -0.1908
vn -0.9593 0.2080 0.1908
vn -0.9593 0.2080 -0.1908
vn 0.8133 0.2080 -0.5434
usemtl BowlingPinMaterial
s off
f 6//1 5//1 11//1 12//1
f 4//2 3//2 9//2 10//2
f 2//3 1//3 7//3 8//3
f 5//4 4//4 10//4 11//4
f 3//5 2//5 8//5 9//5
f 1//6 13//6 7//6
f 8//7 7//7 14//7 15//7
f 11//8 10//8 17//8 18//8
f 9//9 8//9 15//9 16//9
f 7//10 13//10 14//10
f 12//11 11//11 18//11 19//11
f 10//12 9//12 16//12 17//12
f 18//13 17//13 24//13 25//13
f 16//14 15//14 22//14 23//14
f 14//15 13//15 21//15
f 19//16 18//16 25//16 26//16
f 17//17 16//17 23//17 24//17
f 15//18 14//18 21//18 22//18
f 21//19 13//19 28//19
f 26//20 25//20 32//20 33//20
f 24//21 23//21 30//21 31//21
f 22//22 21//22 28//22 29//22
f 25//23 24//23 31//23 32//23
f 23//24 22//24 29//24 30//24
f 33//25 32//25 39//25 40//25
f 31//26 30//26 37//26 38//26
f 29//27 28//27 35//27 36//27
f 32//28 31//28 38//28 39//28
f 30//29 29//29 36//29 37//29
f 28//30 13//30 35//30
f 39//31 38//31 45//31 46//31
f 37//32 36//32 43//32 44//32
f 35//33 13//33 42//33
f 40//34 39//34 46//34 47//34
f 38//35 37//35 44//35 45//35
f 36//36 35//36 42//36 43//36
f 46//37 45//37 52//37 53//37
f 44//38 43//38 50//38 51//38
f 42//39 13//39 49//39
f 47//40 46//40 53//40 54//40
f 45//41 44//41 51//41 52//41
f 43//42 42//42 49//42 50//42
f 54//43 53//43 60//43 61//43
f 52//44 51//44 58//44 59//44
f 50//45 49//45 56//45 57//45
f 53//46 52//46 59//46 60//46
f 51//47 50//47 57//47 58//47
f 49//48 13//48 56//48
f 59//49 58//49 65//49 66//49
f 57//50 56//50 63//50 64//50
f 245//51 251//51 98//51 105//51
f 60//52 59//52 66//52 67//52
f 58//53 57//53 64//53 65//53
f 56//54 13//54 63//54
f 242//55 252//55 34//55 41//55
f 61//56 60//56 67//56 68//56
f 244//57 242//57 41//57 48//57
f 67//58 66//58 73//58 74//58
f 65//59 64//59 71//59 72//59
f 63//60 13//60 70//60
f 251//61 253//61 91//61 98//61
f 68//62 67//62 74//62 75//62
f 66//63 65//63 72//63 73//63
f 64//64 63//64 70//64 71//64
f 72//65 71//65 79//65 80//65
f 70//66 13//66 78//66
f 243//67 257//67 69//67 76//67
f 75//68 74//68 82//68 83//68
f 73//69 72//69 80//69 81//69
f 71//70 70//70 78//70 79//70
f 249//71 243//71 76//71 77//71
f 74//72 73//72 81//72 82//72
f 246//73 244//73 48//73 55//73
f 83//74 82//74 89//74 90//74
f 81//75 80//75 87//75 88//75
f 79//76 78//76 85//76 86//76
f 247//77 245//77 105//77 112//77
f 82//78 81//78 88//78 89//78
f 80//79 79//79 86//79 87//79
f 78//80 13//80 85//80
f 86//81 85//81 92//81 93//81
f 248//82 254//82 113//82 20//82
f 89//83 88//83 95//83 96//83
f 87//84 86//84 93//84 94//84
f 85//85 13//85 92//85
f 252//86 255//86 27//86 34//86
f 90//87 89//87 96//87 97//87
f 88//88 87//88 94//88 95//88
f 250//89 246//89 55//89 62//89
f 96//90 95//90 102//90 103//90
f 94//91 93//91 100//91 101//91
f 92//92 13//92 99//92
f 253//93 256//93 84//93 91//93
f 97//94 96//94 103//94 104//94
f 95//95 94//95 101//95 102//95
f 93//96 92//96 99//96 100//96
f 99//97 13//97 106//97
f 254//98 247//98 112//98 113//98
f 104//99 103//99 110//99 111//99
f 102//100 101//100 108//100 109//100
f 100//101 99//101 106//101 107//101
f 255//102 248//102 20//102 27//102
f 103//103 102//103 109//103 110//103
f 101//104 100//104 107//104 108//104
f 111//105 110//105 5//105 6//105
f 109//106 108//106 3//106 4//106
f 107//107 106//107 1//107 2//107
f 256//108 249//108 77//108 84//108
f 110//109 109//109 4//109 5//109
f 108//110 107//110 2//110 3//110
f 106//111 13//111 1//111
f 257//112 250//112 62//112 69//112
f 241//113 234//113 128//113 129//113
f 240//114 233//114 126//114 127//114
f 239//115 232//115 124//115 125//115
f 238//116 231//116 122//116 123//116
f 237//117 240//117 127//117 121//117
f 234//118 230//118 120//118 128//118
f 236//119 239//119 125//119 119//119
f 232//120 238//120 123//120 124//120
f 231//121 229//121 118//121 122//121
f 230//122 228//122 117//122 120//122
f 233//123 227//123 116//123 126//123
f 227//124 241//124 129//124 116//124
f 235//125 237//125 121//125 115//125
f 228//126 226//126 114//126 117//126
f 226//127 236//127 119//127 114//127
f 229//128 235//128 115//128 118//128
f 197//129 203//129 130//129 140//129
f 194//130 204//130 131//130 137//130
f 196//131 194//131 137//131 139//131
f 203//132 205//132 132//132 130//132
f 195//133 209//133 136//133 138//133
f 201//134 195//134 138//134 144//134
f 198//135 196//135 139//135 141//135
f 199//136 197//136 140//136 142//136
f 200//137 206//137 133//137 143//137
f 204//138 207//138 134//138 131//138
f 202//139 198//139 141//139 145//139
f 205//140 208//140 135//140 132//140
f 206//141 199//141 142//141 133//141
f 207//142 200//142 143//142 134//142
f 208//143 201//143 144//143 135//143
f 209//144 202//144 145//144 136//144
f 61//145 68//145 161//145 152//145
f 40//146 47//146 160//146 151//146
f 104//147 111//147 159//147 150//147
f 6//148 12//148 158//148 149//148
f 33//149 40//149 151//149 148//149
f 68//150 75//150 157//150 161//150
f 97//151 104//151 150//151 147//151
f 111//152 6//152 149//152 159//152
f 12//153 19//153 156//153 158//153
f 75//154 83//154 155//154 157//154
f 47//155 54//155 154//155 160//155
f 54//156 61//156 152//156 154//156
f 26//157 33//157 148//157 146//157
f 83//158 90//158 153//158 155//158
f 90//159 97//159 147//159 153//159
f 19//160 26//160 146//160 156//160
f 177//161 170//161 186//161 193//161
f 176//162 169//162 185//162 192//162
f 175//163 168//163 184//163 191//163
f 174//164 167//164 183//164 190//164
f 173//165 176//165 192//165 189//165
f 170//166 166//166 182//166 186//166
f 172//167 175//167 191//167 188//167
f 168//168 174//168 190//168 184//168
f 167//169 165//169 181//169 183//169
f 166//170 164//170 180//170 182//170
f 169//171 163//171 179//171 185//171
f 163//172 177//172 193//172 179//172
f 171//173 173//173 189//173 187//173
f 164//174 162//174 178//174 180//174
f 162//175 172//175 188//175 178//175
f 165//176 171//176 187//176 181//176
f 48//177 41//177 213//177 214//177
f 91//178 84//178 220//178 221//178
f 76//179 69//179 217//179 218//179
f 113//180 112//180 224//180 225//180
f 20//181 113//181 225//181 210//181
f 55//182 48//182 214//182 215//182
f 98//183 91//183 221//183 222//183
f 77//184 76//184 218//184 219//184
f 27//185 20//185 210//185 211//185
f 62//186 55//186 215//186 216//186
f 105//187 98//187 222//187 223//187
f 34//188 27//188 211//188 212//188
f 84//189 77//189 219//189 220//189
f 41//190 34//190 212//190 213//190
f 69//191 62//191 216//191 217//191
f 112//192 105//192 223//192 224//192
f 225//193 224//193 223//193 222//193 221//193 220//193 219//193 218//193 217//193 216//193 215//193 214//193 213//193 212//193 211//193 210//193
f 140//194 130//194 235//194 229//194
f 137//195 131//195 236//195 226//195
f 139//196 137//196 226//196 228//196
f 130//197 132//197 237//197 235//197
f 138//198 136//198 241//198 227//198
f 144//199 138//199 227//199 233//199
f 141//200 139//200 228//200 230//200
f 142//201 140//201 229//201 231//201
f 143//202 133//202 238//202 232//202
f 131//203 134//203 239//203 236//203
f 145//204 141//204 230//204 234//204
f 132//205 135//205 240//205 237//205
f 133//206 142//206 231//206 238//206
f 134//207 143//207 232//207 239//207
f 135//208 144//208 233//208 240//208
f 136//209 145//209 234//209 241//209
f 129//210 128//210 250//210 257//210
f 127//211 126//211 249//211 256//211
f 125//212 124//212 248//212 255//212
f 123//213 122//213 247//213 254//213
f 121//214 127//214 256//214 253//214
f 128//215 120//215 246//215 250//215
f 119//216 125//216 255//216 252//216
f 124//217 123//217 254//217 248//217
f 122//218 118//218 245//218 247//218
f 120//219 117//219 244//219 246//219
f 126//220 116//220 243//220 249//220
f 116//221 129//221 257//221 243//221
f 115//222 121//222 253//222 251//222
f 117//223 114//223 242//223 244//223
f 114//224 119//224 252//224 242//224
f 118//225 115//225 251//225 245//225
usemtl BowlingPinStripeMaterial
f 152//226 161//226 170//226 177//226
f 151//227 160//227 169//227 176//227
f 150//228 159//228 168//228 175//228
f 149//229 158//229 167//229 174//229
f 148//230 151//230 176//230 173//230
f 161//231 157//231 166//231 170//231
f 147//232 150//232 175//232 172//232
f 159//233 149//233 174//233 168//233
f 158//234 156//234 165//234 167//234
f 157//235 155//235 164//235 166//235
f 160//236 154//236 163//236 169//236
f 154//237 152//237 177//237 163//237
f 146//238 148//238 173//238 171//238
f 155//239 153//239 162//239 164//239
f 153//240 147//240 172//240 162//240
f 156//241 146//241 171//241 165//241
f 193//242 186//242 202//242 209//242
f 192//243 185//243 201//243 208//243
f 191//244 184//244 200//244 207//244
f 190//245 183//245 199//245 206//245
f 189//246 192//246 208//246 205//246
f 186//247 182//247 198//247 202//247
f 188//248 191//248 207//248 204//248
f 184//249 190//249 206//249 200//249
f 183//250 181//250 197//250 199//250
f 182//251 180//251 196//251 198//251
f 185//252 179//252 195//252 201//252
f 179//253 193//253 209//253 195//253
f 187//254 189//254 205//254 203//254
f 180//255 178//255 194//255 196//255
f 178//256 188//256 204//256 194//256
f 181//257 187//257 203//257 197//257
